<svg height="512pt" viewBox="0 -1 512 512" width="512pt" xmlns="http://www.w3.org/2000/svg"><path d="m512 152.441406-208.847656-139.660156c-29.125-17.042969-65.179688-17.042969-94.304688 0l-208.847656 139.660156 46.875 206.714844-46.875 150.746094 256-119.9375 256 119.9375-61.296875-153.835938zm0 0" fill="#79c08c"/><path d="m256 239.121094c-21.441406 0-42 5.832031-59.859375 16.742187l-168.730469-121.753906-27.410156 18.332031 46.875 206.714844-46.875 150.75 256-119.941406 256 119.941406-61.296875-153.839844 61.296875-203.625-27.410156-18.332031-168.730469 121.753906c-17.855469-10.910156-38.421875-16.742187-59.859375-16.742187zm0 0" fill="#35a155"/><path d="m439.015625 73.070312h-366.03125c-15.753906 0-28.527344 12.773438-28.527344 28.527344v288.367188h423.085938v-288.367188c0-15.753906-12.773438-28.527344-28.527344-28.527344zm0 0" fill="#e6e9ed"/><path d="m315.859375 255.863281c-17.855469-10.910156-38.421875-16.742187-59.859375-16.742187s-42 5.832031-59.859375 16.742187l-151.683594-109.453125v243.554688h423.085938v-243.554688zm0 0" fill="#ccd1d9"/><path d="m512 509.902344h-512l196.742188-215.492188c32.8125-32.511718 85.703124-32.511718 118.515624 0zm0 0" fill="#ff7a7a"/><path d="m196.742188 294.410156-196.742188 215.492188v-357.460938zm0 0" fill="#d83a5c"/><path d="m512 152.441406v357.460938l-196.742188-215.492188zm0 0" fill="#d83a5c"/><g fill="#434a53"><path d="m166.914062 418.925781c-4.269531 0-7.726562-3.460937-7.726562-7.726562v-16.125c0-4.265625 3.457031-7.726563 7.726562-7.726563 4.269532 0 7.726563 3.460938 7.726563 7.726563v16.125c0 4.269531-3.460937 7.726562-7.726563 7.726562zm0 0"/><path d="m345.085938 418.925781c-4.265626 0-7.726563-3.460937-7.726563-7.726562v-16.125c0-4.265625 3.460937-7.726563 7.726563-7.726563 4.269531 0 7.726562 3.460938 7.726562 7.726563v16.125c0 4.269531-3.457031 7.726562-7.726562 7.726562zm0 0"/><path d="m256 427.53125c-10.796875 0-20.933594-4.507812-27.804688-12.367188-2.808593-3.214843-2.480468-8.09375.730469-10.902343 3.214844-2.808594 8.09375-2.484375 10.902344.730469 3.9375 4.503906 9.832031 7.085937 16.171875 7.085937s12.234375-2.582031 16.171875-7.085937c2.808594-3.210938 7.6875-3.539063 10.902344-.730469 3.210937 2.808593 3.539062 7.6875.730469 10.902343-6.871094 7.859376-17.003907 12.367188-27.804688 12.367188zm0 0"/><path d="m382.722656 127.367188h-126.722656c-4.269531 0-7.726562-3.460938-7.726562-7.726563s3.457031-7.726563 7.726562-7.726563h126.722656c4.269532 0 7.726563 3.460938 7.726563 7.726563s-3.457031 7.726563-7.726563 7.726563zm0 0"/><path d="m320.910156 173.722656h-157.625c-4.269531 0-7.726562-3.457031-7.726562-7.722656 0-4.269531 3.457031-7.726562 7.726562-7.726562h157.625c4.269532 0 7.726563 3.457031 7.726563 7.726562 0 4.265625-3.457031 7.722656-7.726563 7.722656zm0 0"/><path d="m320.910156 206.691406h-157.625c-4.269531 0-7.726562-3.460937-7.726562-7.726562 0-4.269532 3.457031-7.726563 7.726562-7.726563h157.625c4.269532 0 7.726563 3.457031 7.726563 7.726563 0 4.265625-3.457031 7.726562-7.726563 7.726562zm0 0"/></g></svg>